# xmcd
#
# Track frame offsets:
#	150
#	18525
#	40047
#	58575
#	78417
#	101487
#	122180
#	140380
#	161907
#	179457
#	197725
#	216052
#	231772
#	250280
#	269732
#	293807
#
# Disc length: 4277 seconds
#
# Revision: 1
# Processed by: cddbd v1.5.1PL0 Copyright (c) Steve Scherf et al.
# Submitted via: CDex 1.50Beta5
#
DISCID=ed10b310
DTITLE=前川清 - 前川清コレクション 雪列車〜ひまわり
DYEAR=2002
DGENRE=Pop
TTITLE0=雪列車
TTITLE1=涙
TTITLE2=最後の手紙
TTITLE3=ファニー
TTITLE4=うつっちゃったみたいな
TTITLE5=北のHOTEL
TTITLE6=流木
TTITLE7=明日に(2001 Version)
TTITLE8=他の男・別の女
TTITLE9=雨を聴きながら
TTITLE10=I Love You So
TTITLE11=なきむし姫の物語
TTITLE12=終着駅 長崎
TTITLE13=酔いしれて
TTITLE14=決断
TTITLE15=ひまわり
EXTD=
EXTT0=
EXTT1=
EXTT2=
EXTT3=
EXTT4=
EXTT5=
EXTT6=
EXTT7=
EXTT8=
EXTT9=
EXTT10=
EXTT11=
EXTT12=
EXTT13=
EXTT14=
EXTT15=
PLAYORDER=
